<svg viewBox="0 0 1024 1024"
  xmlns="http://www.w3.org/2000/svg">
  <path d="M 414.573 497.391 C 450.458 473.349 438.257 413.42 426.954 388.212 C 415.651 363.003 373.126 279.569 347.377 230.855 C 328.73 251.221 317.124 277.042 314.275 304.507 C 310.327 342.547 303.239 419.522 293.549 500.264 C 349.98 528.163 379.406 521.165 414.573 497.391 Z" fill="#FF9738" p-id="1016" style=""></path>
  <path d="M 853.091 369.46 C 852.661 346.526 832.304 329.11 809.58 332.23 C 773.067 337.343 726.955 338.151 699.234 305.316 C 684.283 287.781 673.897 266.825 668.998 244.31 C 664.962 226.907 639.394 170.028 517.475 170.028 C 478.059 169.13 438.899 176.556 402.55 191.829 C 427.132 239.288 474.95 331.871 487.869 360.668 C 511.014 412.164 520.614 505.646 451.984 551.937 C 424.457 572.543 391.176 584.026 356.797 584.773 C 332.084 584.231 307.71 578.899 285.027 569.072 C 278.578 621.343 268.689 673.13 255.421 724.098 C 252.013 734.593 248.604 745.717 245.375 756.484 C 234.752 791.104 260.657 826.126 296.87 826.1 L 651.326 826.1 C 679.537 826.047 699.074 797.92 689.276 771.464 C 672.467 726.197 641.1 687.793 600.101 662.285 C 601.176 609.981 624.411 562.344 701.117 554.628 C 772.35 546.733 856.679 535.252 853.091 369.46 Z M 601.894 374.664 C 573.166 374.664 555.208 343.563 569.573 318.683 C 583.938 293.803 619.85 293.803 634.213 318.683 C 637.49 324.357 639.215 330.793 639.215 337.343 C 639.319 358.296 622.124 375.209 601.176 374.754 L 601.894 374.664 Z" fill="#FF9738" p-id="1017" style=""></path>
</svg>